<svg width="20" height="20" viewBox="0 0 20 20" fill="none" xmlns="http://www.w3.org/2000/svg">
<path d="M2.5 13.3333V6.66667C2.5 5.5616 2.93899 4.50179 3.72039 3.72039C4.50179 2.93899 5.5616 2.5 6.66667 2.5H13.3333C14.4384 2.5 15.4982 2.93899 16.2796 3.72039C17.061 4.50179 17.5 5.5616 17.5 6.66667V13.3333C17.5 14.4384 17.061 15.4982 16.2796 16.2796C15.4982 17.061 14.4384 17.5 13.3333 17.5H6.66667C5.5616 17.5 4.50179 17.061 3.72039 16.2796C2.93899 15.4982 2.5 14.4384 2.5 13.3333Z" stroke="#293A3D" stroke-width="1.5"/>
<path d="M13.75 12.0833C13.75 12.0833 12.5 13.75 10 13.75C7.5 13.75 6.25 12.0833 6.25 12.0833" stroke="#293A3D" stroke-width="1.5" stroke-linecap="round" stroke-linejoin="round"/>
<path d="M7.08341 8.33333C6.97291 8.33333 6.86693 8.28943 6.78879 8.21129C6.71065 8.13315 6.66675 8.02717 6.66675 7.91667C6.66675 7.80616 6.71065 7.70018 6.78879 7.62204C6.86693 7.5439 6.97291 7.5 7.08341 7.5C7.19392 7.5 7.2999 7.5439 7.37804 7.62204C7.45618 7.70018 7.50008 7.80616 7.50008 7.91667C7.50008 8.02717 7.45618 8.13315 7.37804 8.21129C7.2999 8.28943 7.19392 8.33333 7.08341 8.33333ZM12.9167 8.33333C12.8062 8.33333 12.7003 8.28943 12.6221 8.21129C12.544 8.13315 12.5001 8.02717 12.5001 7.91667C12.5001 7.80616 12.544 7.70018 12.6221 7.62204C12.7003 7.5439 12.8062 7.5 12.9167 7.5C13.0273 7.5 13.1332 7.5439 13.2114 7.62204C13.2895 7.70018 13.3334 7.80616 13.3334 7.91667C13.3334 8.02717 13.2895 8.13315 13.2114 8.21129C13.1332 8.28943 13.0273 8.33333 12.9167 8.33333Z" fill="#293A3D" stroke="#293A3D" stroke-width="1.5" stroke-linecap="round" stroke-linejoin="round"/>
</svg>
