<svg width="20" height="20" viewBox="0 0 20 20" fill="none" xmlns="http://www.w3.org/2000/svg">
<path d="M11.6599 14.1667H14.1599M16.6599 14.1667H14.1599M14.1599 14.1667V11.6667M14.1599 14.1667V16.6667" stroke="#293A3D" stroke-width="1.5" stroke-linecap="round" stroke-linejoin="round"/>
<path d="M3.33325 7.83334V3.83334C3.33325 3.70074 3.38593 3.57356 3.4797 3.47979C3.57347 3.38602 3.70064 3.33334 3.83325 3.33334H7.83325C7.96586 3.33334 8.09304 3.38602 8.18681 3.47979C8.28057 3.57356 8.33325 3.70074 8.33325 3.83334V7.83334C8.33325 7.96595 8.28057 8.09313 8.18681 8.1869C8.09304 8.28067 7.96586 8.33334 7.83325 8.33334H3.83325C3.70064 8.33334 3.57347 8.28067 3.4797 8.1869C3.38593 8.09313 3.33325 7.96595 3.33325 7.83334V7.83334ZM3.33325 16.1667V12.1667C3.33325 12.0341 3.38593 11.9069 3.4797 11.8131C3.57347 11.7194 3.70064 11.6667 3.83325 11.6667H7.83325C7.96586 11.6667 8.09304 11.7194 8.18681 11.8131C8.28057 11.9069 8.33325 12.0341 8.33325 12.1667V16.1667C8.33325 16.2993 8.28057 16.4265 8.18681 16.5202C8.09304 16.614 7.96586 16.6667 7.83325 16.6667H3.83325C3.70064 16.6667 3.57347 16.614 3.4797 16.5202C3.38593 16.4265 3.33325 16.2993 3.33325 16.1667V16.1667ZM11.6666 7.83334V3.83334C11.6666 3.70074 11.7193 3.57356 11.813 3.47979C11.9068 3.38602 12.034 3.33334 12.1666 3.33334H16.1666C16.2992 3.33334 16.4264 3.38602 16.5201 3.47979C16.6139 3.57356 16.6666 3.70074 16.6666 3.83334V7.83334C16.6666 7.96595 16.6139 8.09313 16.5201 8.1869C16.4264 8.28067 16.2992 8.33334 16.1666 8.33334H12.1666C12.034 8.33334 11.9068 8.28067 11.813 8.1869C11.7193 8.09313 11.6666 7.96595 11.6666 7.83334V7.83334Z" stroke="#293A3D" stroke-width="1.5"/>
</svg>
